<?xml version="1.0" encoding="utf-8"?>
<!-- Svg Vector Icons : http://www.onlinewebfonts.com/icon -->
<!DOCTYPE svg PUBLIC "-//W3C//DTD SVG 1.1//EN" "http://www.w3.org/Graphics/SVG/1.1/DTD/svg11.dtd">
<svg version="1.1" xmlns="http://www.w3.org/2000/svg" xmlns:xlink="http://www.w3.org/1999/xlink" x="0px" y="0px" viewBox="0 0 1000 1000" enable-background="new 0 0 1000 1000" xml:space="preserve">
<metadata> Svg Vector Icons : http://www.onlinewebfonts.com/icon </metadata>
<g><path d="M519.3,168c-16.5-14.5-23.9-36.9-18.8-58.6c3.6-15.7,13.3-29,26.7-37.4c14.4-9,18.8-27.9,9.8-42.3C528,15.4,509,11,494.6,20c-27.1,16.9-46.6,43.8-54,75.5c-10.2,43.9,4.8,89.2,38,118.5c12.7,11.2,32.1,10,43.3-2.7S532,179.2,519.3,168L519.3,168z M478.7,214.1c16.4,14.5,23.8,36.9,18.8,58.6c-3.6,15.7-13.2,28.9-26.7,37.3c-14.4,9-18.8,27.9-9.8,42.3s27.9,18.8,42.3,9.8c27.1-16.9,46.6-43.8,54-75.6c10.2-43.9-4.8-89.2-38-118.5c-12.7-11.2-32.1-10-43.3,2.7C464.8,183.5,466,202.9,478.7,214.1L478.7,214.1z M293.7,170.2c-16.5-14.5-23.9-36.9-18.8-58.6c3.6-15.7,13.3-29,26.7-37.4c14.4-9,18.8-27.9,9.8-42.3c-9-14.4-27.9-18.8-42.3-9.8c-27.1,16.9-46.6,43.8-54,75.5c-10.2,43.9,4.8,89.2,38,118.5c12.7,11.2,32.1,10,43.3-2.7C307.7,200.8,306.4,181.4,293.7,170.2L293.7,170.2z M253.1,216.2c16.4,14.5,23.8,36.9,18.8,58.6c-3.6,15.7-13.2,28.9-26.7,37.3c-14.4,9-18.8,27.9-9.8,42.3c9,14.4,27.9,18.8,42.3,9.8c27.1-16.9,46.6-43.8,54-75.6c10.2-43.9-4.8-89.3-38-118.5c-12.7-11.2-32.1-10-43.3,2.7C239.2,185.6,240.4,205,253.1,216.2L253.1,216.2z M746.3,169.9c-16.4-14.5-23.8-36.8-18.8-58.6c3.6-15.7,13.3-29,26.7-37.4c14.4-9,18.8-27.9,9.8-42.3c-9-14.4-27.9-18.8-42.3-9.8c-27.1,16.9-46.6,43.8-54,75.6c-10.2,43.9,4.8,89.3,38,118.5c12.7,11.2,32.1,10,43.3-2.8C760.2,200.4,759,181,746.3,169.9L746.3,169.9z M705.7,215.9c16.5,14.5,23.9,36.9,18.8,58.6c-3.7,15.8-13.3,29-26.7,37.4c-14.4,9-18.8,27.9-9.8,42.3s27.9,18.8,42.3,9.8c27.1-16.9,46.6-43.8,54-75.6c10.2-43.9-4.8-89.2-38-118.5c-12.7-11.2-32.1-10-43.3,2.7C691.8,185.3,693,204.7,705.7,215.9L705.7,215.9z"/><path d="M71.4,539.7v-51.9c0-10.9,11.3-21.1,26.7-21.1h42.3H808h93.9c15.4,0,26.7,10.2,26.7,21.1v51.9c0,16.9,13.7,30.7,30.7,30.7c16.9,0,30.7-13.7,30.7-30.7v-51.9c0-46.2-40.1-82.5-88.1-82.5H808H140.3H98.1c-48,0-88.1,36.2-88.1,82.5v51.9c0,16.9,13.7,30.7,30.7,30.7C57.6,570.3,71.4,556.6,71.4,539.7L71.4,539.7z"/><path d="M10,510c0,143,61.6,276,167,368.5c12.7,11.2,32.1,9.9,43.3-2.8c11.2-12.7,9.9-32.1-2.8-43.3C125.2,751.5,71.4,635.1,71.4,510c0-16.9-13.7-30.7-30.7-30.7C23.7,479.3,10,493.1,10,510L10,510z M837.7,865C934.3,773.2,990,646,990,510c0-16.9-13.7-30.7-30.7-30.7c-16.9,0-30.7,13.7-30.7,30.7c0,119-48.7,230.1-133.2,310.6c-12.3,11.7-12.8,31.1-1.1,43.4C806,876.2,825.4,876.7,837.7,865L837.7,865z"/><path d="M188.9,886.1h622.3c16.9,0,30.7-13.7,30.7-30.7s-13.7-30.7-30.7-30.7H188.9c-16.9,0-30.7,13.7-30.7,30.7S171.9,886.1,188.9,886.1L188.9,886.1z"/><path d="M85.1,677.8h829.7c16.9,0,30.7-13.7,30.7-30.7c0-16.9-13.7-30.7-30.7-30.7H85.1c-16.9,0-30.7,13.7-30.7,30.7C54.4,664,68.2,677.8,85.1,677.8L85.1,677.8z"/><path d="M277.8,984.6h459.3c16.9,0,30.7-13.7,30.7-30.7s-13.7-30.7-30.7-30.7H277.8c-16.9,0-30.7,13.7-30.7,30.7S260.8,984.6,277.8,984.6L277.8,984.6z"/></g>
</svg>